<?xml version="1.0" encoding="UTF-8" standalone="no"?>
<!-- Created with Inkscape (http://www.inkscape.org/) -->

<svg
   width="36"
   height="26"
   viewBox="0 0 9.5249997 6.879167"
   version="1.1"
   id="svg5"
   inkscape:export-filename="C:\Users\veli0\Pictures\favicon.png"
   inkscape:export-xdpi="111.62791"
   inkscape:export-ydpi="111.62791"
   inkscape:version="1.1 (c68e22c387, 2021-05-23)"
   sodipodi:docname="logo.svg"
   xmlns:inkscape="http://www.inkscape.org/namespaces/inkscape"
   xmlns:sodipodi="http://sodipodi.sourceforge.net/DTD/sodipodi-0.dtd"
   xmlns="http://www.w3.org/2000/svg"
   xmlns:svg="http://www.w3.org/2000/svg">
  <sodipodi:namedview
     id="namedview7"
     pagecolor="#ffffff"
     bordercolor="#666666"
     borderopacity="1.0"
     inkscape:pageshadow="2"
     inkscape:pageopacity="0.0"
     inkscape:pagecheckerboard="0"
     inkscape:document-units="mm"
     showgrid="false"
     units="px"
     width="4px"
     inkscape:showpageshadow="false"
     inkscape:zoom="0.73406285"
     inkscape:cx="397.10496"
     inkscape:cy="343.976"
     inkscape:window-width="1920"
     inkscape:window-height="1009"
     inkscape:window-x="-8"
     inkscape:window-y="-8"
     inkscape:window-maximized="1"
     inkscape:current-layer="layer1" />
  <defs
     id="defs2" />
  <g
     inkscape:label="Layer 1"
     inkscape:groupmode="layer"
     id="layer1">
    <path
       style="fill:#ffffff;stroke-width:0.0971519;stroke-linecap:round;stroke-linejoin:round"
       d="M 4.5310507,6.6170008 C 4.4740966,6.5352518 4.0056678,5.8437428 3.4900974,5.0803138 2.4642253,3.5612568 2.4052823,3.4768508 1.0675185,1.6111948 0.56215783,0.90641478 0.14176983,0.31133978 0.13332263,0.28880678 c -0.00845,-0.02253 0.035985,3.33e-4 0.098739,0.05085 0.062754,0.0505 0.77342197,0.617247 1.57926357,1.25943202 0.8058413,0.642184 1.7369932,1.384816 2.069226,1.650289 0.3322327,0.265475 0.6470774,0.512644 0.6996541,0.549265 l 0.095594,0.06658 0.444204,-0.347551 C 5.3643148,3.3265188 6.4201723,2.4866388 7.466353,1.6512728 8.5125324,0.81590578 9.3777286,0.13236378 9.3890116,0.13229178 c 0.02902,-1.67e-4 -0.104994,0.192515 -0.393174,0.565371 C 8.4700857,1.3778948 6.8297229,3.5574518 6.5486107,3.9493038 c -0.1622749,0.2262 -0.651457,0.943361 -1.0870724,1.593689 -0.4356144,0.650328 -0.799881,1.191465 -0.8094809,1.202526 -0.0096,0.01106 -0.064053,-0.04677 -0.1210072,-0.128523 z"
       id="path991" />
  </g>
</svg>
